<svg xmlns="http://www.w3.org/2000/svg" width="120" height="48" viewBox="0 0 120 48" fill="none">
  <rect x="1" y="1" width="118" height="46" rx="10" fill="#0b1220" stroke="#334155"/>
  <rect x="12" y="12" width="44" height="24" rx="5" fill="#1e293b" stroke="#475569"/>
  <rect x="12" y="18" width="44" height="4" fill="#64748b"/>
  <circle cx="20" cy="29" r="3" fill="#93c5fd"/>
  <circle cx="26" cy="29" r="3" fill="#0ea5e9" fill-opacity="0.8"/>
  <path d="M74 14h31a3 3 0 0 1 3 3v14a3 3 0 0 1-3 3H74z" fill="#1d4ed8"/>
  <path d="M86 14h19a3 3 0 0 1 3 3v14a3 3 0 0 1-3 3H86z" fill="#0f766e"/>
  <text x="64" y="41" fill="#cbd5e1" font-family="Arial, sans-serif" font-size="8" font-weight="700">CARD PAYMENT</text>
</svg>
