<svg xmlns="http://www.w3.org/2000/svg" width="120" height="48" viewBox="0 0 120 48" fill="none">
  <rect x="1" y="1" width="118" height="46" rx="10" fill="#635BFF" fill-opacity="0.12" stroke="#635BFF" stroke-opacity="0.4"/>
  <path d="M26.1 28.9c0-2.3-1.1-3.1-3.5-3.8l-1.3-.4c-1-.3-1.4-.6-1.4-1.2 0-.8.6-1.3 1.8-1.3 1.1 0 2.2.3 3.2.9v-3.2c-1-.5-2.1-.8-3.7-.8-3.3 0-5.5 1.9-5.5 4.8 0 2.1 1.1 3.3 3.6 4l1.2.4c1 .3 1.4.6 1.4 1.3 0 .8-.7 1.3-1.9 1.3-1.4 0-2.8-.4-4-.9v3.3c1.1.5 2.5.8 4.1.8 3.4 0 5.9-1.8 5.9-5z" fill="#635BFF"/>
  <path d="M33.8 19.5h-4v14.6h4V19.5z" fill="#635BFF"/>
  <path d="M42.8 19.5h-4v14.6h4V19.5z" fill="#635BFF"/>
  <path d="M53.4 22.7h3.4v-3.2h-3.4v-3.8l-4 .9v2.9h-2.1v3.2h2.1v6.5c0 3 1.7 5 4.8 5 1 0 2-.2 2.7-.6v-3.2c-.5.2-1 .3-1.7.3-1.1 0-1.8-.5-1.8-1.9v-6.1z" fill="#635BFF"/>
  <text x="64" y="31" fill="#635BFF" font-family="Arial, sans-serif" font-size="16" font-weight="700">stripe</text>
</svg>
