<svg xmlns="http://www.w3.org/2000/svg" viewBox="0 0 24 24">
  <path fill="#fff" d="M22.281 7.531a6.607 6.607 0 0 0-6.602-6.602 6.566 6.566 0 0 0-3.395.938 6.567 6.567 0 0 0-9.04 2.454 6.566 6.566 0 0 0-.85 3.21 6.566 6.566 0 0 0 .938 3.395A6.567 6.567 0 0 0 .879 20a6.607 6.607 0 0 0 6.602 6.602c1.215 0 2.367-.324 3.395-.938a6.567 6.567 0 0 0 9.04-2.454 6.567 6.567 0 0 0 .85-3.21 6.566 6.566 0 0 0-.938-3.395 6.567 6.567 0 0 0 2.453-9.074ZM15.68 2.79a4.74 4.74 0 0 1 4.742 4.742c0 .184-.014.363-.037.54a6.593 6.593 0 0 0-2.838-.64c-.454 0-.897.047-1.325.137l-2.317-4.009a4.716 4.716 0 0 1 1.775-.77Zm-8.2.998c1.256 0 2.398.486 3.253 1.278l2.327 4.026-2.812 1.625-2.328-4.026A4.705 4.705 0 0 1 7.48 3.79Zm-4.224 6.59c0-1.256.486-2.398 1.278-3.252l2.328 4.026-2.813 1.624a4.706 4.706 0 0 1-.793-2.398Zm4.224 14.363A4.74 4.74 0 0 1 2.74 20a4.705 4.705 0 0 1 .793-2.599l2.327 4.026a4.716 4.716 0 0 1 1.62 3.315Zm-2.405-8.714c-.09-.428-.137-.871-.137-1.325 0-.454.047-.897.137-1.325l2.317-1.337 1.626 2.813-2.813 1.625-1.13-.451Zm5.801 8.018a4.705 4.705 0 0 1-2.956 1.06 4.706 4.706 0 0 1-2.398-.793l2.328-1.625 2.812 1.626-.786-.268Zm1.408-.813-2.317-1.337v-3.25h3.25l1.625 2.813-2.558 1.774Zm5.043-1.438a4.706 4.706 0 0 1-2.398.793 4.705 4.705 0 0 1-2.599-.793l2.327-1.626 2.67.42Zm.99-2.66-2.812-.451-1.625-2.813 2.813-1.625 2.317 1.337c.09.428.137.871.137 1.325a4.706 4.706 0 0 1-.83 2.227Zm-1.9-7.757-1.625-2.812 2.812-1.625 1.337.774c.09.428.137.871.137 1.325a4.742 4.742 0 0 1-2.66 4.246Z" transform="scale(.9) translate(1.3 1.2)"/>
</svg>
