<svg xmlns="http://www.w3.org/2000/svg" viewBox="0 0 256 256" role="img" aria-labelledby="title desc">
  <title id="title">SwiftDeploy logo</title>
  <desc id="desc">A friendly blue chatbot face inside a chat bubble.</desc>
  <defs>
    <linearGradient id="bubbleBlue" x1="40" y1="28" x2="220" y2="220" gradientUnits="userSpaceOnUse">
      <stop offset="0" stop-color="#4a57f3" />
      <stop offset="1" stop-color="#2539cc" />
    </linearGradient>
    <linearGradient id="barBlue" x1="0" y1="52" x2="0" y2="204" gradientUnits="userSpaceOnUse">
      <stop offset="0" stop-color="#5263ff" />
      <stop offset="1" stop-color="#3048da" />
    </linearGradient>
  </defs>

  <rect x="20" y="62" width="12" height="122" rx="6" fill="url(#barBlue)" />
  <rect x="224" y="62" width="12" height="122" rx="6" fill="url(#barBlue)" />

  <circle cx="128" cy="120" r="96" fill="url(#bubbleBlue)" />
  <path d="M72 192c-6 17-17 30-32 40 21-3 39-11 54-24l12-10-34-6z" fill="url(#bubbleBlue)" />

  <rect x="52" y="68" width="152" height="100" rx="34" fill="#f1f3f8" />

  <path d="M85 106c7-8 18-8 25 0" fill="none" stroke="#2d41d3" stroke-width="10" stroke-linecap="round" />
  <path d="M146 106c7-8 18-8 25 0" fill="none" stroke="#2d41d3" stroke-width="10" stroke-linecap="round" />
  <path d="M113 133c5 6 25 6 30 0" fill="none" stroke="#2d41d3" stroke-width="6" stroke-linecap="round" />
</svg>
