<svg xmlns="http://www.w3.org/2000/svg" viewBox="0 0 256 256">
  <circle cx="128" cy="128" r="88" fill="#2AABEE"/>
  <path fill="#fff" d="M77.4 124.8c27.1-11.8 45.1-19.5 54-23.2 25.4-10.6 30.7-12.4 34.1-12.4.8 0 2.5.2 3.6 1.1.9.7 1.1 1.7 1.2 2.4.1.7.2 2.3.1 3.6-1.2 13.8-7 47.3-10 62.8-1.3 6.6-3.9 8.9-6.4 9.1-5.5.5-9.7-3.6-15-7.1-8.2-5.4-12.8-8.8-20.8-14.1-9.3-6.1-3.3-9.5 2-15 1.4-1.4 24.7-22.7 25.2-24.6.1-.2.1-1.1-.4-1.6s-1.2-.4-1.7-.3c-.8.2-13.2 8.4-37.2 24.4-3.5 2.4-6.7 3.5-9.5 3.4-3.1-.1-9.1-1.8-13.5-3.2-5.3-1.7-9.6-2.6-9.2-5.5.2-1.5 2.2-3 6-4.5Z"/>
</svg>
