<svg xmlns="http://www.w3.org/2000/svg" viewBox="0 0 24 24">
  <path fill="#25D366" d="M12 2.04C6.5 2.04 2.04 6.5 2.04 12c0 1.76.46 3.42 1.26 4.86L2 22l5.3-1.39A9.94 9.94 0 0 0 12 21.96c5.5 0 9.96-4.46 9.96-9.96 0-5.5-4.46-9.96-9.96-9.96Z"/>
  <path fill="#fff" d="M17.47 14.33c-.28-.14-1.66-.82-1.91-.91-.26-.1-.45-.14-.64.14-.19.28-.73.91-.9 1.1-.16.19-.33.21-.61.07-.28-.14-1.18-.44-2.25-1.41-.83-.74-1.39-1.65-1.56-1.93-.16-.28-.02-.43.12-.57.13-.13.28-.33.42-.5.14-.17.19-.28.28-.47.1-.19.05-.35-.02-.5-.07-.14-.64-1.55-.88-2.13-.23-.55-.47-.48-.64-.49h-.55c-.19 0-.5.07-.76.35-.26.28-.99.97-.99 2.37s1.02 2.75 1.17 2.94c.14.19 2.01 3.06 4.87 4.29.68.29 1.21.47 1.62.6.68.22 1.3.19 1.79.12.55-.08 1.66-.68 1.89-1.34.23-.66.23-1.22.16-1.34-.06-.11-.25-.18-.52-.32Z"/>
</svg>
